<?xml version="1.0" encoding="UTF-8" standalone="no"?>
<svg
   xmlns:dc="http://purl.org/dc/elements/1.1/"
   xmlns:cc="http://creativecommons.org/ns#"
   xmlns:rdf="http://www.w3.org/1999/02/22-rdf-syntax-ns#"
   xmlns:svg="http://www.w3.org/2000/svg"
   xmlns="http://www.w3.org/2000/svg"
   version="1.1"
   id="svg4092"
   height="1102.0139"
   width="518.00464">
  <defs
     id="defs4094" />
  <metadata
     id="metadata4097">
    <rdf:RDF>
      <cc:Work
         rdf:about="">
        <dc:format>image/svg+xml</dc:format>
        <dc:type
           rdf:resource="http://purl.org/dc/dcmitype/StillImage" />
        <dc:title />
      </cc:Work>
    </rdf:RDF>
  </metadata>
  <g
     transform="translate(0.34375,49.312522)"
     id="layer1">
    <path
       id="rect4100-3"
       d="m 3.15625,903.1875 73,0 0,73 -73,0 z"
       style="fill:none;stroke:#839496;stroke-width:6.99999952;stroke-miterlimit:4;stroke-dasharray:none;stroke-opacity:1" />
    <path
       id="rect4100-710"
       d="m 3.7317142,976.77222 509.8583358,0 0,71.85838 -509.8583358,0 z"
       style="fill:#dc322f;fill-opacity:1;stroke:#839496;stroke-width:8.14166164;stroke-miterlimit:4;stroke-dasharray:none;stroke-opacity:1" />
    <path
       id="rect4100-710-9"
       d="m 3.7270808,-45.241692 509.8583392,0 0,71.858338 -509.8583392,0 z"
       style="fill:#2aa198;fill-opacity:1;stroke:#839496;stroke-width:8.14166164;stroke-miterlimit:4;stroke-dasharray:none;stroke-opacity:1" />
    <path
       id="rect4100-3-2"
       d="m 76.15625,903.1875 73,0 0,73 -73,0 z"
       style="fill:none;stroke:#839496;stroke-width:6.99999952;stroke-miterlimit:4;stroke-dasharray:none;stroke-opacity:1" />
    <path
       id="rect4100-3-0"
       d="m 149.15625,903.1875 73,0 0,73 -73,0 z"
       style="fill:none;stroke:#839496;stroke-width:6.99999952;stroke-miterlimit:4;stroke-dasharray:none;stroke-opacity:1" />
    <path
       id="rect4100-3-2-0"
       d="m 222.15625,903.1875 73,0 0,73 -73,0 z"
       style="fill:none;stroke:#839496;stroke-width:6.99999952;stroke-miterlimit:4;stroke-dasharray:none;stroke-opacity:1" />
    <path
       id="rect4100-3-09"
       d="m 295.15625,903.1875 73,0 0,73 -73,0 z"
       style="fill:none;stroke:#839496;stroke-width:6.99999952;stroke-miterlimit:4;stroke-dasharray:none;stroke-opacity:1" />
    <path
       id="rect4100-3-2-3"
       d="m 368.15625,903.1875 73,0 0,73 -73,0 z"
       style="fill:none;stroke:#839496;stroke-width:6.99999952;stroke-miterlimit:4;stroke-dasharray:none;stroke-opacity:1" />
    <path
       id="rect4100-3-0-0"
       d="m 441.15625,903.1875 73,0 0,73 -73,0 z"
       style="fill:none;stroke:#839496;stroke-width:6.99999952;stroke-miterlimit:4;stroke-dasharray:none;stroke-opacity:1" />
    <path
       id="rect4100-3-1"
       d="m 3.15625,830.1875 73,0 0,73 -73,0 z"
       style="fill:none;stroke:#839496;stroke-width:6.99999952;stroke-miterlimit:4;stroke-dasharray:none;stroke-opacity:1" />
    <path
       id="rect4100-3-2-4"
       d="m 76.15625,830.1875 73,0 0,73 -73,0 z"
       style="fill:none;stroke:#839496;stroke-width:6.99999952;stroke-miterlimit:4;stroke-dasharray:none;stroke-opacity:1" />
    <path
       id="rect4100-3-0-7"
       d="m 149.15625,830.1875 73,0 0,73 -73,0 z"
       style="fill:none;stroke:#839496;stroke-width:6.99999952;stroke-miterlimit:4;stroke-dasharray:none;stroke-opacity:1" />
    <path
       id="rect4100-3-2-0-1"
       d="m 222.15625,830.1875 73,0 0,73 -73,0 z"
       style="fill:none;stroke:#839496;stroke-width:6.99999952;stroke-miterlimit:4;stroke-dasharray:none;stroke-opacity:1" />
    <path
       id="rect4100-3-09-8"
       d="m 295.15625,830.1875 73,0 0,73 -73,0 z"
       style="fill:none;stroke:#839496;stroke-width:6.99999952;stroke-miterlimit:4;stroke-dasharray:none;stroke-opacity:1" />
    <path
       id="rect4100-3-2-3-0"
       d="m 368.15625,830.1875 73,0 0,73 -73,0 z"
       style="fill:none;stroke:#839496;stroke-width:6.99999952;stroke-miterlimit:4;stroke-dasharray:none;stroke-opacity:1" />
    <path
       id="rect4100-3-0-0-9"
       d="m 441.15625,830.1875 73,0 0,73 -73,0 z"
       style="fill:none;stroke:#839496;stroke-width:6.99999952;stroke-miterlimit:4;stroke-dasharray:none;stroke-opacity:1" />
    <path
       id="rect4100-3-097"
       d="m 3.15625,757.1875 73,0 0,73 -73,0 z"
       style="fill:none;stroke:#839496;stroke-width:6.99999952;stroke-miterlimit:4;stroke-dasharray:none;stroke-opacity:1" />
    <path
       id="rect4100-3-2-5"
       d="m 76.15625,757.1875 73,0 0,73 -73,0 z"
       style="fill:none;stroke:#839496;stroke-width:6.99999952;stroke-miterlimit:4;stroke-dasharray:none;stroke-opacity:1" />
    <path
       id="rect4100-3-0-4"
       d="m 149.15625,757.1875 73,0 0,73 -73,0 z"
       style="fill:none;stroke:#839496;stroke-width:6.99999952;stroke-miterlimit:4;stroke-dasharray:none;stroke-opacity:1" />
    <path
       id="rect4100-3-2-0-4"
       d="m 222.15625,757.1875 73,0 0,73 -73,0 z"
       style="fill:none;stroke:#839496;stroke-width:6.99999952;stroke-miterlimit:4;stroke-dasharray:none;stroke-opacity:1" />
    <path
       id="rect4100-3-09-2"
       d="m 295.15625,757.1875 73,0 0,73 -73,0 z"
       style="fill:none;stroke:#839496;stroke-width:6.99999952;stroke-miterlimit:4;stroke-dasharray:none;stroke-opacity:1" />
    <path
       id="rect4100-3-2-3-7"
       d="m 368.15625,757.1875 73,0 0,73 -73,0 z"
       style="fill:none;stroke:#839496;stroke-width:6.99999952;stroke-miterlimit:4;stroke-dasharray:none;stroke-opacity:1" />
    <path
       id="rect4100-3-0-0-1"
       d="m 441.15625,757.1875 73,0 0,73 -73,0 z"
       style="fill:none;stroke:#839496;stroke-width:6.99999952;stroke-miterlimit:4;stroke-dasharray:none;stroke-opacity:1" />
    <path
       id="rect4100-3-1-9"
       d="m 3.15625,684.1875 73,0 0,73 -73,0 z"
       style="fill:none;stroke:#839496;stroke-width:6.99999952;stroke-miterlimit:4;stroke-dasharray:none;stroke-opacity:1" />
    <path
       id="rect4100-3-2-4-8"
       d="m 76.15625,684.1875 73,0 0,73 -73,0 z"
       style="fill:none;stroke:#839496;stroke-width:6.99999952;stroke-miterlimit:4;stroke-dasharray:none;stroke-opacity:1" />
    <path
       id="rect4100-3-0-7-9"
       d="m 149.15625,684.1875 73,0 0,73 -73,0 z"
       style="fill:none;stroke:#839496;stroke-width:6.99999952;stroke-miterlimit:4;stroke-dasharray:none;stroke-opacity:1" />
    <path
       id="rect4100-3-2-0-1-8"
       d="m 222.15625,684.1875 73,0 0,73 -73,0 z"
       style="fill:none;stroke:#839496;stroke-width:6.99999952;stroke-miterlimit:4;stroke-dasharray:none;stroke-opacity:1" />
    <path
       id="rect4100-3-09-8-2"
       d="m 295.15625,684.1875 73,0 0,73 -73,0 z"
       style="fill:none;stroke:#839496;stroke-width:6.99999952;stroke-miterlimit:4;stroke-dasharray:none;stroke-opacity:1" />
    <path
       id="rect4100-3-2-3-0-1"
       d="m 368.15625,684.1875 73,0 0,73 -73,0 z"
       style="fill:none;stroke:#839496;stroke-width:6.99999952;stroke-miterlimit:4;stroke-dasharray:none;stroke-opacity:1" />
    <path
       id="rect4100-3-0-0-9-8"
       d="m 441.15625,684.1875 73,0 0,73 -73,0 z"
       style="fill:none;stroke:#839496;stroke-width:6.99999952;stroke-miterlimit:4;stroke-dasharray:none;stroke-opacity:1" />
    <path
       id="rect4100-3-4"
       d="m 3.15625,611.1875 73,0 0,73 -73,0 z"
       style="fill:none;stroke:#839496;stroke-width:6.99999952;stroke-miterlimit:4;stroke-dasharray:none;stroke-opacity:1" />
    <path
       id="rect4100-3-2-7"
       d="m 76.15625,611.1875 73,0 0,73 -73,0 z"
       style="fill:none;stroke:#839496;stroke-width:6.99999952;stroke-miterlimit:4;stroke-dasharray:none;stroke-opacity:1" />
    <path
       id="rect4100-3-0-06"
       d="m 149.15625,611.1875 73,0 0,73 -73,0 z"
       style="fill:none;stroke:#839496;stroke-width:6.99999952;stroke-miterlimit:4;stroke-dasharray:none;stroke-opacity:1" />
    <path
       id="rect4100-3-2-0-2"
       d="m 222.15625,611.1875 73,0 0,73 -73,0 z"
       style="fill:none;stroke:#839496;stroke-width:6.99999952;stroke-miterlimit:4;stroke-dasharray:none;stroke-opacity:1" />
    <path
       id="rect4100-3-09-1"
       d="m 295.15625,611.1875 73,0 0,73 -73,0 z"
       style="fill:none;stroke:#839496;stroke-width:6.99999952;stroke-miterlimit:4;stroke-dasharray:none;stroke-opacity:1" />
    <path
       id="rect4100-3-2-3-2"
       d="m 368.15625,611.1875 73,0 0,73 -73,0 z"
       style="fill:none;stroke:#839496;stroke-width:6.99999952;stroke-miterlimit:4;stroke-dasharray:none;stroke-opacity:1" />
    <path
       id="rect4100-3-0-0-14"
       d="m 441.15625,611.1875 73,0 0,73 -73,0 z"
       style="fill:none;stroke:#839496;stroke-width:6.99999952;stroke-miterlimit:4;stroke-dasharray:none;stroke-opacity:1" />
    <path
       id="rect4100-3-1-2"
       d="m 3.15625,538.1875 73,0 0,73 -73,0 z"
       style="fill:none;stroke:#839496;stroke-width:6.99999952;stroke-miterlimit:4;stroke-dasharray:none;stroke-opacity:1" />
    <path
       id="rect4100-3-2-4-6"
       d="m 76.15625,538.1875 73,0 0,73 -73,0 z"
       style="fill:none;stroke:#839496;stroke-width:6.99999952;stroke-miterlimit:4;stroke-dasharray:none;stroke-opacity:1" />
    <path
       id="rect4100-3-0-7-2"
       d="m 149.15625,538.1875 73,0 0,73 -73,0 z"
       style="fill:none;stroke:#839496;stroke-width:6.99999952;stroke-miterlimit:4;stroke-dasharray:none;stroke-opacity:1" />
    <path
       id="rect4100-3-2-0-1-2"
       d="m 222.15625,538.1875 73,0 0,73 -73,0 z"
       style="fill:none;stroke:#839496;stroke-width:6.99999952;stroke-miterlimit:4;stroke-dasharray:none;stroke-opacity:1" />
    <path
       id="rect4100-3-09-8-5"
       d="m 295.15625,538.1875 73,0 0,73 -73,0 z"
       style="fill:none;stroke:#839496;stroke-width:6.99999952;stroke-miterlimit:4;stroke-dasharray:none;stroke-opacity:1" />
    <path
       id="rect4100-3-2-3-0-9"
       d="m 368.15625,538.1875 73,0 0,73 -73,0 z"
       style="fill:none;stroke:#839496;stroke-width:6.99999952;stroke-miterlimit:4;stroke-dasharray:none;stroke-opacity:1" />
    <path
       id="rect4100-3-0-0-9-9"
       d="m 441.15625,538.1875 73,0 0,73 -73,0 z"
       style="fill:none;stroke:#839496;stroke-width:6.99999952;stroke-miterlimit:4;stroke-dasharray:none;stroke-opacity:1" />
    <path
       id="rect4100-3-097-3"
       d="m 3.15625,465.18744 73,0 0,73 -73,0 z"
       style="fill:none;stroke:#839496;stroke-width:6.99999952;stroke-miterlimit:4;stroke-dasharray:none;stroke-opacity:1" />
    <path
       id="rect4100-3-2-5-2"
       d="m 76.15625,465.18744 73,0 0,73 -73,0 z"
       style="fill:none;stroke:#839496;stroke-width:6.99999952;stroke-miterlimit:4;stroke-dasharray:none;stroke-opacity:1" />
    <path
       id="rect4100-3-0-4-9"
       d="m 149.15625,465.18744 73,0 0,73 -73,0 z"
       style="fill:none;stroke:#839496;stroke-width:6.99999952;stroke-miterlimit:4;stroke-dasharray:none;stroke-opacity:1" />
    <path
       id="rect4100-3-2-0-4-6"
       d="m 222.15625,465.18744 73,0 0,73 -73,0 z"
       style="fill:none;stroke:#839496;stroke-width:6.99999952;stroke-miterlimit:4;stroke-dasharray:none;stroke-opacity:1" />
    <path
       id="rect4100-3-09-2-1"
       d="m 295.15625,465.18744 73,0 0,73 -73,0 z"
       style="fill:none;stroke:#839496;stroke-width:6.99999952;stroke-miterlimit:4;stroke-dasharray:none;stroke-opacity:1" />
    <path
       id="rect4100-3-2-3-7-8"
       d="m 368.15625,465.18744 73,0 0,73 -73,0 z"
       style="fill:none;stroke:#839496;stroke-width:6.99999952;stroke-miterlimit:4;stroke-dasharray:none;stroke-opacity:1" />
    <path
       id="rect4100-3-0-0-1-4"
       d="m 441.15625,465.18744 73,0 0,73 -73,0 z"
       style="fill:none;stroke:#839496;stroke-width:6.99999952;stroke-miterlimit:4;stroke-dasharray:none;stroke-opacity:1" />
    <path
       id="rect4100-3-1-9-6"
       d="m 3.15625,392.18744 73,0 0,73 -73,0 z"
       style="fill:none;stroke:#839496;stroke-width:6.99999952;stroke-miterlimit:4;stroke-dasharray:none;stroke-opacity:1" />
    <path
       id="rect4100-3-2-4-8-7"
       d="m 76.15625,392.18744 73,0 0,73 -73,0 z"
       style="fill:none;stroke:#839496;stroke-width:6.99999952;stroke-miterlimit:4;stroke-dasharray:none;stroke-opacity:1" />
    <path
       id="rect4100-3-0-7-9-4"
       d="m 149.15625,392.18744 73,0 0,73 -73,0 z"
       style="fill:none;stroke:#839496;stroke-width:6.99999952;stroke-miterlimit:4;stroke-dasharray:none;stroke-opacity:1" />
    <path
       id="rect4100-3-2-0-1-8-6"
       d="m 222.15625,392.18744 73,0 0,73 -73,0 z"
       style="fill:none;stroke:#839496;stroke-width:6.99999952;stroke-miterlimit:4;stroke-dasharray:none;stroke-opacity:1" />
    <path
       id="rect4100-3-09-8-2-3"
       d="m 295.15625,392.18744 73,0 0,73 -73,0 z"
       style="fill:none;stroke:#839496;stroke-width:6.99999952;stroke-miterlimit:4;stroke-dasharray:none;stroke-opacity:1" />
    <path
       id="rect4100-3-2-3-0-1-8"
       d="m 368.15625,392.18744 73,0 0,73 -73,0 z"
       style="fill:none;stroke:#839496;stroke-width:6.99999952;stroke-miterlimit:4;stroke-dasharray:none;stroke-opacity:1" />
    <path
       id="rect4100-3-0-0-9-8-5"
       d="m 441.15625,392.18744 73,0 0,73 -73,0 z"
       style="fill:none;stroke:#839496;stroke-width:6.99999952;stroke-miterlimit:4;stroke-dasharray:none;stroke-opacity:1" />
    <path
       id="rect4100-3-1-9-68"
       d="m 3.15625,319.18747 73,0 0,73 -73,0 z"
       style="fill:none;stroke:#839496;stroke-width:7;stroke-miterlimit:4;stroke-dasharray:none;stroke-opacity:1" />
    <path
       id="rect4100-3-2-4-8-79"
       d="m 76.15625,319.18747 73,0 0,73 -73,0 z"
       style="fill:none;stroke:#839496;stroke-width:6.99999952;stroke-miterlimit:4;stroke-dasharray:none;stroke-opacity:1" />
    <path
       id="rect4100-3-0-7-9-1"
       d="m 149.15625,319.18747 73,0 0,73 -73,0 z"
       style="fill:none;stroke:#839496;stroke-width:6.99999952;stroke-miterlimit:4;stroke-dasharray:none;stroke-opacity:1" />
    <path
       id="rect4100-3-2-0-1-8-1"
       d="m 222.15625,319.18747 73,0 0,73 -73,0 z"
       style="fill:none;stroke:#839496;stroke-width:6.99999952;stroke-miterlimit:4;stroke-dasharray:none;stroke-opacity:1" />
    <path
       id="rect4100-3-09-8-2-9"
       d="m 295.15625,319.18747 73,0 0,73 -73,0 z"
       style="fill:none;stroke:#839496;stroke-width:6.99999952;stroke-miterlimit:4;stroke-dasharray:none;stroke-opacity:1" />
    <path
       id="rect4100-3-2-3-0-1-3"
       d="m 368.15625,319.18747 73,0 0,73 -73,0 z"
       style="fill:none;stroke:#839496;stroke-width:6.99999952;stroke-miterlimit:4;stroke-dasharray:none;stroke-opacity:1" />
    <path
       id="rect4100-3-0-0-9-8-7"
       d="m 441.15625,319.18747 73,0 0,73 -73,0 z"
       style="fill:none;stroke:#839496;stroke-width:6.99999952;stroke-miterlimit:4;stroke-dasharray:none;stroke-opacity:1" />
    <path
       id="rect4100-3-4-8"
       d="m 3.15625,246.18747 73,0 0,73 -73,0 z"
       style="fill:none;stroke:#839496;stroke-width:6.99999952;stroke-miterlimit:4;stroke-dasharray:none;stroke-opacity:1" />
    <path
       id="rect4100-3-2-7-3"
       d="m 76.15625,246.18747 73,0 0,73 -73,0 z"
       style="fill:none;stroke:#839496;stroke-width:6.99999952;stroke-miterlimit:4;stroke-dasharray:none;stroke-opacity:1" />
    <path
       id="rect4100-3-0-06-3"
       d="m 149.15625,246.18747 73,0 0,73 -73,0 z"
       style="fill:none;stroke:#839496;stroke-width:6.99999952;stroke-miterlimit:4;stroke-dasharray:none;stroke-opacity:1" />
    <path
       id="rect4100-3-2-0-2-7"
       d="m 222.15625,246.18747 73,0 0,73 -73,0 z"
       style="fill:none;stroke:#839496;stroke-width:6.99999952;stroke-miterlimit:4;stroke-dasharray:none;stroke-opacity:1" />
    <path
       id="rect4100-3-09-1-5"
       d="m 295.15625,246.18747 73,0 0,73 -73,0 z"
       style="fill:none;stroke:#839496;stroke-width:6.99999952;stroke-miterlimit:4;stroke-dasharray:none;stroke-opacity:1" />
    <path
       id="rect4100-3-2-3-2-8"
       d="m 368.15625,246.18747 73,0 0,73 -73,0 z"
       style="fill:none;stroke:#839496;stroke-width:6.99999952;stroke-miterlimit:4;stroke-dasharray:none;stroke-opacity:1" />
    <path
       id="rect4100-3-0-0-14-9"
       d="m 441.15625,246.18747 73,0 0,73 -73,0 z"
       style="fill:none;stroke:#839496;stroke-width:6.99999952;stroke-miterlimit:4;stroke-dasharray:none;stroke-opacity:1" />
    <path
       id="rect4100-3-1-2-5"
       d="m 3.15625,173.18747 73,0 0,73 -73,0 z"
       style="fill:none;stroke:#839496;stroke-width:6.99999952;stroke-miterlimit:4;stroke-dasharray:none;stroke-opacity:1" />
    <path
       id="rect4100-3-2-4-6-0"
       d="m 76.15625,173.18747 73,0 0,73 -73,0 z"
       style="fill:none;stroke:#839496;stroke-width:6.99999952;stroke-miterlimit:4;stroke-dasharray:none;stroke-opacity:1" />
    <path
       id="rect4100-3-0-7-2-4"
       d="m 149.15625,173.18747 73,0 0,73 -73,0 z"
       style="fill:none;stroke:#839496;stroke-width:6.99999952;stroke-miterlimit:4;stroke-dasharray:none;stroke-opacity:1" />
    <path
       id="rect4100-3-2-0-1-2-9"
       d="m 222.15625,173.18747 73,0 0,73 -73,0 z"
       style="fill:none;stroke:#839496;stroke-width:6.99999952;stroke-miterlimit:4;stroke-dasharray:none;stroke-opacity:1" />
    <path
       id="rect4100-3-09-8-5-3"
       d="m 295.15625,173.18747 73,0 0,73 -73,0 z"
       style="fill:none;stroke:#839496;stroke-width:6.99999952;stroke-miterlimit:4;stroke-dasharray:none;stroke-opacity:1" />
    <path
       id="rect4100-3-2-3-0-9-1"
       d="m 368.15625,173.18747 73,0 0,73 -73,0 z"
       style="fill:none;stroke:#839496;stroke-width:6.99999952;stroke-miterlimit:4;stroke-dasharray:none;stroke-opacity:1" />
    <path
       id="rect4100-3-0-0-9-9-8"
       d="m 441.15625,173.18747 73,0 0,73 -73,0 z"
       style="fill:none;stroke:#839496;stroke-width:6.99999952;stroke-miterlimit:4;stroke-dasharray:none;stroke-opacity:1" />
    <path
       id="rect4100-3-097-3-9"
       d="m 3.15625,100.18743 73,0 0,73 -73,0 z"
       style="fill:none;stroke:#839496;stroke-width:6.99999952;stroke-miterlimit:4;stroke-dasharray:none;stroke-opacity:1" />
    <path
       id="rect4100-3-2-5-2-2"
       d="m 76.15625,100.18743 73,0 0,73 -73,0 z"
       style="fill:none;stroke:#839496;stroke-width:6.99999952;stroke-miterlimit:4;stroke-dasharray:none;stroke-opacity:1" />
    <path
       id="rect4100-3-0-4-9-7"
       d="m 149.15625,100.18743 73,0 0,73 -73,0 z"
       style="fill:none;stroke:#839496;stroke-width:6.99999952;stroke-miterlimit:4;stroke-dasharray:none;stroke-opacity:1" />
    <path
       id="rect4100-3-2-0-4-6-5"
       d="m 222.15625,100.18743 73,0 0,73 -73,0 z"
       style="fill:none;stroke:#839496;stroke-width:6.99999952;stroke-miterlimit:4;stroke-dasharray:none;stroke-opacity:1" />
    <path
       id="rect4100-3-09-2-1-5"
       d="m 295.15625,100.18743 73,0 0,73 -73,0 z"
       style="fill:none;stroke:#839496;stroke-width:6.99999952;stroke-miterlimit:4;stroke-dasharray:none;stroke-opacity:1" />
    <path
       id="rect4100-3-2-3-7-8-3"
       d="m 368.15625,100.18743 73,0 0,73 -73,0 z"
       style="fill:none;stroke:#839496;stroke-width:6.99999952;stroke-miterlimit:4;stroke-dasharray:none;stroke-opacity:1" />
    <path
       id="rect4100-3-0-0-1-4-5"
       d="m 441.15625,100.18743 73,0 0,73 -73,0 z"
       style="fill:none;stroke:#839496;stroke-width:6.99999952;stroke-miterlimit:4;stroke-dasharray:none;stroke-opacity:1" />
    <path
       id="rect4100-3-1-9-6-2"
       d="m 3.15625,27.187439 73,0 0,73.000001 -73,0 z"
       style="fill:none;stroke:#839496;stroke-width:6.99999952;stroke-miterlimit:4;stroke-dasharray:none;stroke-opacity:1" />
    <path
       id="rect4100-3-2-4-8-7-6"
       d="m 76.15625,27.187439 73,0 0,73.000001 -73,0 z"
       style="fill:none;stroke:#839496;stroke-width:6.99999952;stroke-miterlimit:4;stroke-dasharray:none;stroke-opacity:1" />
    <path
       id="rect4100-3-0-7-9-4-6"
       d="m 149.15625,27.187439 73,0 0,73.000001 -73,0 z"
       style="fill:none;stroke:#839496;stroke-width:6.99999952;stroke-miterlimit:4;stroke-dasharray:none;stroke-opacity:1" />
    <path
       id="rect4100-3-2-0-1-8-6-2"
       d="m 222.15625,27.187439 73,0 0,73.000001 -73,0 z"
       style="fill:none;stroke:#839496;stroke-width:6.99999952;stroke-miterlimit:4;stroke-dasharray:none;stroke-opacity:1" />
    <path
       id="rect4100-3-09-8-2-3-2"
       d="m 295.15625,27.187439 73,0 0,73.000001 -73,0 z"
       style="fill:none;stroke:#839496;stroke-width:6.99999952;stroke-miterlimit:4;stroke-dasharray:none;stroke-opacity:1" />
    <path
       id="rect4100-3-2-3-0-1-8-5"
       d="m 368.15625,27.187439 73,0 0,73.000001 -73,0 z"
       style="fill:none;stroke:#839496;stroke-width:6.99999952;stroke-miterlimit:4;stroke-dasharray:none;stroke-opacity:1" />
    <path
       id="rect4100-3-0-0-9-8-5-5"
       d="m 441.15625,27.187439 73,0 0,73.000001 -73,0 z"
       style="fill:none;stroke:#839496;stroke-width:6.99999952;stroke-miterlimit:4;stroke-dasharray:none;stroke-opacity:1" />
    <path
       id="path3750"
       d="m 271.15625,501.68744 a 12.5,12.5 0 0 1 -12.5,12.5 12.5,12.5 0 0 1 -12.5,-12.5 12.5,12.5 0 0 1 12.5,-12.5 12.5,12.5 0 0 1 12.5,12.5 z"
       style="fill:#839496;fill-opacity:1" />
  </g>
</svg>
