<?xml version="1.0" encoding="UTF-8" standalone="no"?>
<svg
   xmlns:dc="http://purl.org/dc/elements/1.1/"
   xmlns:cc="http://creativecommons.org/ns#"
   xmlns:rdf="http://www.w3.org/1999/02/22-rdf-syntax-ns#"
   xmlns:svg="http://www.w3.org/2000/svg"
   xmlns="http://www.w3.org/2000/svg"
   version="1.1"
   id="svg9992"
   viewBox="0 0 118.31035 118.31035"
   height="33.389809mm"
   width="33.389809mm">
  <defs
     id="defs9994" />
  <metadata
     id="metadata9997">
    <rdf:RDF>
      <cc:Work
         rdf:about="">
        <dc:format>image/svg+xml</dc:format>
        <dc:type
           rdf:resource="http://purl.org/dc/dcmitype/StillImage" />
        <dc:title />
      </cc:Work>
    </rdf:RDF>
  </metadata>
  <g
     transform="translate(-155.84483,-558.20701)"
     id="layer1">
    <path
       id="path10000"
       d="M 272.15517,617.36218 A 57.15517,57.15517 0 0 1 215,674.51735 57.15517,57.15517 0 0 1 157.84483,617.36218 57.15517,57.15517 0 0 1 215,560.20701 a 57.15517,57.15517 0 0 1 57.15517,57.15517 z"
       style="fill:#839496;fill-opacity:1;stroke:#073642;stroke-width:4;stroke-miterlimit:4;stroke-dasharray:none;stroke-opacity:1" />
    <g
       id="text11082"
       style="font-style:normal;font-weight:normal;font-size:40px;line-height:125%;font-family:sans-serif;letter-spacing:0px;word-spacing:0px;fill:#002b36;fill-opacity:1;stroke:none;stroke-width:1px;stroke-linecap:butt;stroke-linejoin:miter;stroke-opacity:1">
      <path
         id="path12"
         style="font-style:normal;font-variant:normal;font-weight:bold;font-stretch:normal;font-size:120px;font-family:'ubuntu mono';-inkscape-font-specification:'ubuntu mono Bold';fill:#002b36;fill-opacity:1"
         d="m 204.74001,627.62219 q -0.12,-0.6 -0.12,-1.8 0,-4.8 2.52,-9.12 2.52,-4.44 6.6,-7.8 2.76,-2.28 5.16,-4.8 2.4,-2.64 2.4,-5.64 0,-3.6 -2.52,-5.4 -2.52,-1.92 -6.36,-1.92 -3.84,0 -7.44,1.2 -3.6,1.08 -7.8,3.12 l -4.08,-11.28 q 4.2,-2.64 9.84,-4.08 5.64,-1.44 11.16,-1.44 6.84,0 11.28,1.92 4.44,1.8 6.96,4.56 2.52,2.76 3.48,6.12 1.08,3.24 1.08,6.24 0,3.48 -1.44,6.36 -1.32,2.88 -3.48,5.4 -2.04,2.52 -4.44,4.8 -2.4,2.16 -4.56,4.32 -2.04,2.16 -3.48,4.44 -1.32,2.28 -1.32,4.8 l -13.44,0 z m 17.64,18.48 q 0,4.68 -3.12,7.32 -3,2.64 -6.84,2.64 -1.92,0 -3.72,-0.72 -1.8,-0.6 -3.24,-1.92 -1.44,-1.32 -2.28,-3.12 -0.84,-1.8 -0.84,-4.2 0,-2.28 0.84,-4.08 0.84,-1.92 2.28,-3.12 1.44,-1.32 3.24,-1.92 1.8,-0.72 3.72,-0.72 1.92,0 3.72,0.72 1.8,0.6 3.12,1.92 1.44,1.2 2.28,3.12 0.84,1.8 0.84,4.08 z" />
    </g>
  </g>
</svg>
