<?xml version="1.0" encoding="UTF-8" standalone="no"?>
<svg
   xmlns:dc="http://purl.org/dc/elements/1.1/"
   xmlns:cc="http://creativecommons.org/ns#"
   xmlns:rdf="http://www.w3.org/1999/02/22-rdf-syntax-ns#"
   xmlns:svg="http://www.w3.org/2000/svg"
   xmlns="http://www.w3.org/2000/svg"
   version="1.1"
   id="svg2"
   height="105.02291"
   width="127.59727">
  <defs
     id="defs4" />
  <metadata
     id="metadata7">
    <rdf:RDF>
      <cc:Work
         rdf:about="">
        <dc:format>image/svg+xml</dc:format>
        <dc:type
           rdf:resource="http://purl.org/dc/dcmitype/StillImage" />
        <dc:title />
      </cc:Work>
    </rdf:RDF>
  </metadata>
  <g
     transform="translate(27.589416,-947.07079)"
     id="layer1">
    <g
       transform="matrix(0.22497027,0.83960135,-0.84022417,0.22513763,889.95514,730.3365)"
       style="fill:#eee8d5;fill-opacity:1;stroke:#073642;stroke-width:3.45009351;stroke-miterlimit:4;stroke-dasharray:none;stroke-opacity:1"
       id="g3932">
      <path
         id="path3791-1-5"
         d="m -5.403666,1050.4059 5.96087297,-22.2482 -10.79814297,-14.8882 16.7139568,-7.3849 6.0104292,-22.2462 16.790886,-7.41952 6.011311,-22.24748 10.781305,14.76 16.808795,-7.35894 10.830098,14.82673 16.809458,-7.3593 -5.932654,22.14491 10.798147,14.8896 -5.959848,22.2465 10.798142,14.8883 -16.713948,7.3849 -6.011472,22.2478 -16.789227,7.4171 -6.011318,22.2475 -10.7813,-14.76 -16.810303,7.3611 -10.82931,-14.8316 -16.80945429,7.3593 5.93265719,-22.1448 z"
         style="fill:#eee8d5;fill-opacity:1;stroke:#073642;stroke-width:4.0383749;stroke-miterlimit:4;stroke-dasharray:none;stroke-opacity:1" />
      <g
         id="text6225"
         style="font-style:normal;font-weight:normal;font-size:46.00125122px;line-height:125%;font-family:sans-serif;letter-spacing:0px;word-spacing:0px;fill:#dc322f;fill-opacity:1;stroke:none;stroke-width:1px;stroke-linecap:butt;stroke-linejoin:miter;stroke-opacity:1"
         transform="matrix(0.2589153,-0.96556777,0.96628401,0.25872282,0,0)">
        <path
           id="path12"
           style="font-style:normal;font-variant:normal;font-weight:bold;font-stretch:normal;font-size:25.8757019px;font-family:'Ubuntu Mono';-inkscape-font-specification:'Ubuntu Mono Bold'"
           d="m -1026.6641,308.96824 q 0.2846,-0.59514 0.6468,-1.50079 0.3882,-0.90565 0.7504,-1.9148 0.3882,-1.00916 0.7246,-2.04418 0.3622,-1.03503 0.6469,-1.86305 l 3.2862,0 q -0.4917,1.31966 -0.9833,2.56169 -0.4916,1.24203 -1.035,2.45819 -0.5434,1.21616 -1.1644,2.43232 -0.6211,1.19028 -1.3456,2.45819 l 0,6.10667 -3.2086,0 0,-6.08079 q -1.4231,-2.50995 -2.5099,-4.89051 -1.0609,-2.40644 -2.0442,-5.04576 l 3.4156,0 q 0.5951,1.86305 1.3197,3.80372 0.7245,1.91481 1.5008,3.5191 z" />
        <path
           id="path14"
           style="font-style:normal;font-variant:normal;font-weight:bold;font-stretch:normal;font-size:25.8757019px;font-family:'Ubuntu Mono';-inkscape-font-specification:'Ubuntu Mono Bold'"
           d="m -1016.3656,309.64101 q 0,1.1644 0.078,2.19943 0.1035,1.00916 0.3623,1.75955 0.2846,0.7504 0.7762,1.19028 0.4917,0.43989 1.3197,0.43989 0.8022,0 1.2938,-0.43989 0.5175,-0.43988 0.7763,-1.19028 0.2846,-0.77627 0.3622,-1.78542 0.1035,-1.00916 0.1035,-2.17356 0,-1.16441 -0.1035,-2.17356 -0.078,-1.03503 -0.3622,-1.78542 -0.2588,-0.7504 -0.7504,-1.19029 -0.4917,-0.43988 -1.3197,-0.43988 -0.828,0 -1.3197,0.43988 -0.4916,0.43989 -0.7762,1.21616 -0.2588,0.7504 -0.3623,1.75955 -0.078,1.00915 -0.078,2.17356 z m -3.2345,0 q 0,-4.14011 1.5267,-6.23605 1.5267,-2.1218 4.2436,-2.1218 2.8205,0 4.2954,2.1218 1.4749,2.09594 1.4749,6.23605 0,4.14011 -1.5008,6.26192 -1.5008,2.09593 -4.2436,2.09593 -2.8205,0 -4.3213,-2.09593 -1.4749,-2.12181 -1.4749,-6.26192 z" />
        <path
           id="path16"
           style="font-style:normal;font-variant:normal;font-weight:bold;font-stretch:normal;font-size:25.8757019px;font-family:'Ubuntu Mono';-inkscape-font-specification:'Ubuntu Mono Bold'"
           d="m -1000.9437,317.99886 q -1.5525,0 -2.6134,-0.41401 -1.0351,-0.43989 -1.6561,-1.24204 -0.621,-0.80214 -0.8798,-1.94067 -0.2587,-1.13853 -0.2587,-2.53582 l 0,-10.2209 3.2086,0 0,10.01389 q 0,1.00916 0.1035,1.7078 0.1035,0.67277 0.3364,1.08678 0.2587,0.41401 0.6986,0.59514 0.4399,0.18113 1.1127,0.18113 0.6727,0 1.11261,-0.18113 0.43989,-0.18113 0.69864,-0.59514 0.25876,-0.43989 0.36226,-1.11266 0.10351,-0.69864 0.10351,-1.70779 l 0,-9.98802 3.18271,0 0,10.2209 q 0,1.39729 -0.25876,2.53582 -0.25876,1.13853 -0.90565,1.94067 -0.64689,0.80215 -1.70779,1.24204 -1.06091,0.41401 -2.63933,0.41401 z" />
        <path
           id="path18"
           style="font-style:normal;font-variant:normal;font-weight:bold;font-stretch:normal;font-size:25.8757019px;font-family:'Ubuntu Mono';-inkscape-font-specification:'Ubuntu Mono Bold'"
           d="m -969.58235,317.66248 -10.06564,0 0,-16.01706 3.20858,0 0,13.37773 6.85706,0 0,2.63933 z" />
        <path
           id="path20"
           style="font-style:normal;font-variant:normal;font-weight:bold;font-stretch:normal;font-size:25.8757019px;font-family:'Ubuntu Mono';-inkscape-font-specification:'Ubuntu Mono Bold'"
           d="m -964.61421,309.64101 q 0,1.1644 0.0776,2.19943 0.1035,1.00916 0.36226,1.75955 0.28463,0.7504 0.77627,1.19028 0.49164,0.43989 1.31966,0.43989 0.80214,0 1.29378,-0.43989 0.51752,-0.43988 0.77627,-1.19028 0.28464,-0.77627 0.36226,-1.78542 0.10351,-1.00916 0.10351,-2.17356 0,-1.16441 -0.10351,-2.17356 -0.0776,-1.03503 -0.36226,-1.78542 -0.25875,-0.7504 -0.75039,-1.19029 -0.49164,-0.43988 -1.31966,-0.43988 -0.82802,0 -1.31966,0.43988 -0.49164,0.43989 -0.77627,1.21616 -0.25876,0.7504 -0.36226,1.75955 -0.0776,1.00915 -0.0776,2.17356 z m -3.23446,0 q 0,-4.14011 1.52666,-6.23605 1.52667,-2.1218 4.24362,-2.1218 2.82045,0 4.29536,2.1218 1.47492,2.09594 1.47492,6.23605 0,4.14011 -1.50079,6.26192 -1.50079,2.09593 -4.24362,2.09593 -2.82045,0 -4.32124,-2.09593 -1.47491,-2.12181 -1.47491,-6.26192 z" />
        <path
           id="path22"
           style="font-style:normal;font-variant:normal;font-weight:bold;font-stretch:normal;font-size:25.8757019px;font-family:'Ubuntu Mono';-inkscape-font-specification:'Ubuntu Mono Bold'"
           d="m -949.6063,315.33366 q 0.80214,0 1.31966,-0.15525 0.54339,-0.18113 0.8539,-0.46576 0.3105,-0.31051 0.41401,-0.67277 0.12937,-0.38814 0.12937,-0.77627 0,-0.49164 -0.28463,-0.87978 -0.28463,-0.38813 -0.72452,-0.67277 -0.43988,-0.3105 -0.98327,-0.54339 -0.54339,-0.25875 -1.08678,-0.46576 -0.72452,-0.25876 -1.50079,-0.59514 -0.77628,-0.33638 -1.42317,-0.8539 -0.62101,-0.51751 -1.03503,-1.26791 -0.41401,-0.77627 -0.41401,-1.9148 0,-2.25118 1.44904,-3.51909 1.47492,-1.26791 4.03661,-1.26791 1.47492,0 2.5617,0.33638 1.11265,0.33638 1.86305,0.7504 l -0.93153,2.45819 q -0.64689,-0.36226 -1.44904,-0.62102 -0.77627,-0.25876 -1.8113,-0.25876 -2.53582,0 -2.53582,1.83718 0,0.46576 0.25876,0.82802 0.25876,0.33638 0.64689,0.62102 0.41401,0.25875 0.90565,0.46576 0.51752,0.20701 1.00916,0.38814 0.75039,0.28463 1.55254,0.64689 0.82802,0.33638 1.50079,0.93152 0.69864,0.56927 1.13853,1.44904 0.43989,0.8539 0.43989,2.17356 0,2.25119 -1.47492,3.49322 -1.44904,1.21616 -4.42474,1.21616 -1.99243,0 -3.18272,-0.41401 -1.19028,-0.43989 -1.78542,-0.80215 l 0.93153,-2.58757 q 0.69864,0.41401 1.65604,0.77627 0.98328,0.36226 2.38057,0.36226 z" />
        <path
           id="path24"
           style="font-style:normal;font-variant:normal;font-weight:bold;font-stretch:normal;font-size:25.8757019px;font-family:'Ubuntu Mono';-inkscape-font-specification:'Ubuntu Mono Bold'"
           d="m -941.04145,317.66248 0,-16.01706 9.70339,0 0,2.63932 -6.52068,0 0,3.59672 5.66678,0 0,2.63932 -5.66678,0 0,4.50237 7.08995,0 0,2.63933 -10.27266,0 z" />
      </g>
    </g>
  </g>
</svg>
