<?xml version="1.0" encoding="UTF-8" standalone="no"?>
<svg
   xmlns:dc="http://purl.org/dc/elements/1.1/"
   xmlns:cc="http://creativecommons.org/ns#"
   xmlns:rdf="http://www.w3.org/1999/02/22-rdf-syntax-ns#"
   xmlns:svg="http://www.w3.org/2000/svg"
   xmlns="http://www.w3.org/2000/svg"
   version="1.1"
   id="svg2"
   height="105.02291"
   width="127.59727">
  <defs
     id="defs4" />
  <metadata
     id="metadata7">
    <rdf:RDF>
      <cc:Work
         rdf:about="">
        <dc:format>image/svg+xml</dc:format>
        <dc:type
           rdf:resource="http://purl.org/dc/dcmitype/StillImage" />
        <dc:title />
      </cc:Work>
    </rdf:RDF>
  </metadata>
  <g
     transform="translate(27.589416,-947.07079)"
     id="layer1">
    <g
       transform="matrix(0.22497027,0.83960135,-0.84022417,0.22513763,889.95514,730.3365)"
       style="fill:#eee8d5;fill-opacity:1;stroke:#073642;stroke-width:3.45009351;stroke-miterlimit:4;stroke-dasharray:none;stroke-opacity:1"
       id="g3932">
      <path
         id="path3791-1-5"
         d="m -5.403666,1050.4059 5.96087297,-22.2482 -10.79814297,-14.8882 16.7139568,-7.3849 6.0104292,-22.2462 16.790886,-7.41952 6.011311,-22.24748 10.781305,14.76 16.808795,-7.35894 10.830098,14.82673 16.809458,-7.3593 -5.932654,22.14491 10.798147,14.8896 -5.959848,22.2465 10.798142,14.8883 -16.713948,7.3849 -6.011472,22.2478 -16.789227,7.4171 -6.011318,22.2475 -10.7813,-14.76 -16.810303,7.3611 -10.82931,-14.8316 -16.80945429,7.3593 5.93265719,-22.1448 z"
         style="fill:#eee8d5;fill-opacity:1;stroke:#073642;stroke-width:4.0383749;stroke-miterlimit:4;stroke-dasharray:none;stroke-opacity:1" />
      <g
         id="text6225"
         style="font-style:normal;font-weight:normal;font-size:46.00125122px;line-height:125%;font-family:sans-serif;letter-spacing:0px;word-spacing:0px;fill:#dc322f;fill-opacity:1;stroke:none;stroke-width:1px;stroke-linecap:butt;stroke-linejoin:miter;stroke-opacity:1"
         transform="matrix(0.2589153,-0.96556777,0.96628401,0.25872282,0,0)">
        <path
           id="path12"
           style="font-style:normal;font-variant:normal;font-weight:bold;font-stretch:normal;font-family:'Ubuntu Mono';-inkscape-font-specification:'Ubuntu Mono Bold'"
           d="m -1011.7487,299.70474 q -2.024,0 -3.4041,0.73602 -1.38,0.73602 -2.3,2.07006 -0.8741,1.28803 -1.2881,3.12808 -0.368,1.79405 -0.368,4.00211 0,5.10614 1.6101,7.54421 1.61,2.39206 4.7381,2.39206 0.506,0 1.104,-0.046 0.598,-0.046 1.104,-0.138 l 0,-10.39629 5.6582,0 0,14.21439 q -1.012,0.36801 -3.1741,0.82802 -2.116,0.46001 -5.1521,0.46001 -2.6681,0 -4.8302,-0.92002 -2.116,-0.96603 -3.6341,-2.80608 -1.518,-1.88605 -2.346,-4.64612 -0.828,-2.80608 -0.828,-6.48618 0,-3.6341 0.966,-6.39417 0.966,-2.80608 2.6221,-4.69213 1.656,-1.88605 3.9101,-2.80608 2.254,-0.96602 4.8301,-0.96602 1.656,0 2.9441,0.276 1.334,0.23001 2.3,0.55202 0.9661,0.32201 1.5641,0.69002 0.644,0.36801 0.966,0.55201 l -1.472,4.50812 q -1.0121,-0.64401 -2.4841,-1.15003 -1.472,-0.50601 -3.0361,-0.50601 z" />
        <path
           id="path14"
           style="font-style:normal;font-variant:normal;font-weight:bold;font-stretch:normal;font-family:'Ubuntu Mono';-inkscape-font-specification:'Ubuntu Mono Bold'"
           d="m -996.10826,309.64101 q 0,2.07006 0.13801,3.91011 0.184,1.79404 0.64401,3.12808 0.50602,1.33404 1.38004,2.11606 0.87402,0.78202 2.34606,0.78202 1.42604,0 2.30007,-0.78202 0.92002,-0.78202 1.38003,-2.11606 0.50602,-1.38004 0.64402,-3.17409 0.18401,-1.79404 0.18401,-3.8641 0,-2.07006 -0.18401,-3.86411 -0.138,-1.84005 -0.64402,-3.17408 -0.46001,-1.33404 -1.33403,-2.11606 -0.87403,-0.78202 -2.34607,-0.78202 -1.47204,0 -2.34606,0.78202 -0.87402,0.78202 -1.38004,2.16206 -0.46001,1.33404 -0.64401,3.12808 -0.13801,1.79405 -0.13801,3.86411 z m -5.75014,0 q 0,-7.3602 2.71406,-11.0863 2.71407,-3.7721 7.5442,-3.7721 5.01414,0 7.63621,3.7721 2.62207,3.7261 2.62207,11.0863 0,7.3602 -2.66807,11.1323 -2.66807,3.7261 -7.5442,3.7261 -5.01414,0 -7.68221,-3.7261 -2.62206,-3.7721 -2.62206,-11.1323 z" />
        <path
           id="path16"
           style="font-style:normal;font-variant:normal;font-weight:bold;font-stretch:normal;font-family:'Ubuntu Mono';-inkscape-font-specification:'Ubuntu Mono Bold'"
           d="m -963.58537,323.9014 -1.33404,-6.57818 -7.59021,0 -1.28803,6.57818 -5.88816,0 q 2.02405,-8.41823 4.09411,-15.31842 2.07006,-6.94619 4.00211,-13.15636 l 6.16417,0 q 2.02405,6.25617 4.0021,13.29436 2.02406,6.99219 3.91011,15.18042 l -6.07216,0 z m -5.06014,-22.95463 q -0.46001,1.61005 -0.87403,3.08209 -0.36801,1.42604 -0.73602,2.85207 -0.322,1.38004 -0.64401,2.80608 -0.27601,1.42604 -0.55202,2.94408 l 5.56615,0 q -0.276,-1.51804 -0.55201,-2.94408 -0.27601,-1.42604 -0.64402,-2.80608 -0.32201,-1.42603 -0.73602,-2.85207 -0.36801,-1.47204 -0.82802,-3.08209 z" />
        <path
           id="path18"
           style="font-style:normal;font-variant:normal;font-weight:bold;font-stretch:normal;font-family:'Ubuntu Mono';-inkscape-font-specification:'Ubuntu Mono Bold'"
           d="m -935.93862,323.9014 -17.89449,0 0,-28.47478 5.70416,0 0,23.78265 12.19033,0 0,4.69213 z" />
      </g>
    </g>
  </g>
</svg>
