<?xml version="1.0" encoding="UTF-8" standalone="no"?>
<svg
   xmlns:dc="http://purl.org/dc/elements/1.1/"
   xmlns:cc="http://creativecommons.org/ns#"
   xmlns:rdf="http://www.w3.org/1999/02/22-rdf-syntax-ns#"
   xmlns:svg="http://www.w3.org/2000/svg"
   xmlns="http://www.w3.org/2000/svg"
   version="1.1"
   id="svg2"
   height="105.02291"
   width="127.59727">
  <defs
     id="defs4" />
  <metadata
     id="metadata7">
    <rdf:RDF>
      <cc:Work
         rdf:about="">
        <dc:format>image/svg+xml</dc:format>
        <dc:type
           rdf:resource="http://purl.org/dc/dcmitype/StillImage" />
        <dc:title />
      </cc:Work>
    </rdf:RDF>
  </metadata>
  <g
     transform="translate(27.589416,-947.07079)"
     id="layer1">
    <g
       transform="matrix(0.22497027,0.83960135,-0.84022417,0.22513763,889.95514,730.3365)"
       style="fill:#eee8d5;fill-opacity:1;stroke:#073642;stroke-width:3.45009351;stroke-miterlimit:4;stroke-dasharray:none;stroke-opacity:1"
       id="g3932">
      <path
         id="path3791-1-5"
         d="m -5.403666,1050.4059 5.96087297,-22.2482 -10.79814297,-14.8882 16.7139568,-7.3849 6.0104292,-22.2462 16.790886,-7.41952 6.011311,-22.24748 10.781305,14.76 16.808795,-7.35894 10.830098,14.82673 16.809458,-7.3593 -5.932654,22.14491 10.798147,14.8896 -5.959848,22.2465 10.798142,14.8883 -16.713948,7.3849 -6.011472,22.2478 -16.789227,7.4171 -6.011318,22.2475 -10.7813,-14.76 -16.810303,7.3611 -10.82931,-14.8316 -16.80945429,7.3593 5.93265719,-22.1448 z"
         style="fill:#eee8d5;fill-opacity:1;stroke:#073642;stroke-width:4.0383749;stroke-miterlimit:4;stroke-dasharray:none;stroke-opacity:1" />
      <g
         id="text6225"
         style="font-style:normal;font-weight:normal;font-size:46.00125122px;line-height:125%;font-family:sans-serif;letter-spacing:0px;word-spacing:0px;fill:#dc322f;fill-opacity:1;stroke:none;stroke-width:1px;stroke-linecap:butt;stroke-linejoin:miter;stroke-opacity:1"
         transform="matrix(0.2589153,-0.96556777,0.96628401,0.25872282,0,0)">
        <path
           id="path12"
           style="font-style:normal;font-variant:normal;font-weight:bold;font-stretch:normal;font-size:25.8757019px;font-family:'Ubuntu Mono';-inkscape-font-specification:'Ubuntu Mono Bold'"
           d="m -1020.1175,308.96824 q 0.2846,-0.59514 0.6469,-1.50079 0.3881,-0.90565 0.7504,-1.9148 0.3881,-1.00916 0.7245,-2.04418 0.3623,-1.03503 0.6469,-1.86305 l 3.2862,0 q -0.4916,1.31966 -0.9833,2.56169 -0.4916,1.24203 -1.035,2.45819 -0.5434,1.21616 -1.1644,2.43232 -0.621,1.19028 -1.3455,2.45819 l 0,6.10667 -3.2086,0 0,-6.08079 q -1.4232,-2.50995 -2.51,-4.89051 -1.0609,-2.40644 -2.0442,-5.04576 l 3.4156,0 q 0.5952,1.86305 1.3197,3.80372 0.7245,1.91481 1.5008,3.5191 z" />
        <path
           id="path14"
           style="font-style:normal;font-variant:normal;font-weight:bold;font-stretch:normal;font-size:25.8757019px;font-family:'Ubuntu Mono';-inkscape-font-specification:'Ubuntu Mono Bold'"
           d="m -1009.819,309.64101 q 0,1.1644 0.078,2.19943 0.1035,1.00916 0.3623,1.75955 0.2846,0.7504 0.7763,1.19028 0.4916,0.43989 1.3196,0.43989 0.8022,0 1.2938,-0.43989 0.5175,-0.43988 0.7763,-1.19028 0.2846,-0.77627 0.3623,-1.78542 0.1035,-1.00916 0.1035,-2.17356 0,-1.16441 -0.1035,-2.17356 -0.078,-1.03503 -0.3623,-1.78542 -0.2588,-0.7504 -0.7504,-1.19029 -0.4916,-0.43988 -1.3197,-0.43988 -0.828,0 -1.3196,0.43988 -0.4917,0.43989 -0.7763,1.21616 -0.2588,0.7504 -0.3623,1.75955 -0.078,1.00915 -0.078,2.17356 z m -3.2344,0 q 0,-4.14011 1.5266,-6.23605 1.5267,-2.1218 4.2436,-2.1218 2.8205,0 4.2954,2.1218 1.4749,2.09594 1.4749,6.23605 0,4.14011 -1.5008,6.26192 -1.5008,2.09593 -4.2436,2.09593 -2.8204,0 -4.3212,-2.09593 -1.4749,-2.12181 -1.4749,-6.26192 z" />
        <path
           id="path16"
           style="font-style:normal;font-variant:normal;font-weight:bold;font-stretch:normal;font-size:25.8757019px;font-family:'Ubuntu Mono';-inkscape-font-specification:'Ubuntu Mono Bold'"
           d="m -994.39707,317.99886 q -1.55254,0 -2.61344,-0.41401 -1.03503,-0.43989 -1.65605,-1.24204 -0.62101,-0.80214 -0.87977,-1.94067 -0.25876,-1.13853 -0.25876,-2.53582 l 0,-10.2209 3.20859,0 0,10.01389 q 0,1.00916 0.1035,1.7078 0.10351,0.67277 0.33639,1.08678 0.25875,0.41401 0.69864,0.59514 0.43989,0.18113 1.11266,0.18113 0.67276,0 1.11265,-0.18113 0.43989,-0.18113 0.69865,-0.59514 0.25875,-0.43989 0.36225,-1.11266 0.10351,-0.69864 0.10351,-1.70779 l 0,-9.98802 3.18271,0 0,10.2209 q 0,1.39729 -0.25876,2.53582 -0.25875,1.13853 -0.90565,1.94067 -0.64689,0.80215 -1.70779,1.24204 -1.06091,0.41401 -2.63933,0.41401 z" />
        <path
           id="path18"
           style="font-style:normal;font-variant:normal;font-weight:bold;font-stretch:normal;font-size:25.8757019px;font-family:'Ubuntu Mono';-inkscape-font-specification:'Ubuntu Mono Bold'"
           d="m -967.27933,307.31219 q 0.1035,0.49164 0.31051,1.21616 0.207,0.72452 0.43989,1.6043 0.25875,0.87977 0.54339,1.88892 0.3105,1.00915 0.59514,2.07006 0,-1.34554 -0.0259,-2.8722 -0.0259,-1.55255 -0.0517,-3.15684 -0.0259,-1.60429 -0.0517,-3.23446 -0.0259,-1.65605 -0.0259,-3.18271 l 2.94983,0 q -0.0776,1.96655 -0.15525,4.06248 -0.0776,2.07006 -0.18113,4.14011 -0.1035,2.04418 -0.25876,4.03661 -0.12938,1.99243 -0.31051,3.77786 l -2.63932,0 q -0.56926,-1.63017 -1.13853,-3.49322 -0.56927,-1.88893 -1.13853,-3.59673 -0.56927,1.63017 -1.19028,3.54497 -0.62102,1.91481 -1.13853,3.54498 l -2.63933,0 q -0.207,-1.78543 -0.36226,-3.77786 -0.15525,-2.0183 -0.28463,-4.06248 -0.1035,-2.07006 -0.18113,-4.14011 -0.0776,-2.09594 -0.12938,-4.03661 l 2.94983,0 q -0.0259,1.52666 -0.0518,3.15683 -0.0259,1.63017 -0.0517,3.26034 -0.0259,1.60429 -0.0517,3.15684 -0.0259,1.52666 -0.0259,2.8722 0.23288,-0.82802 0.51752,-1.8113 0.31051,-0.98328 0.56926,-1.94068 0.28464,-0.9574 0.51752,-1.75955 0.23288,-0.80214 0.36226,-1.26791 l 2.32881,0 z" />
        <path
           id="path20"
           style="font-style:normal;font-variant:normal;font-weight:bold;font-stretch:normal;font-size:25.8757019px;font-family:'Ubuntu Mono';-inkscape-font-specification:'Ubuntu Mono Bold'"
           d="m -960.6034,317.66248 0,-2.63933 3.49322,0 0,-10.73841 -3.49322,0 0,-2.63932 10.16915,0 0,2.63932 -3.46734,0 0,10.73841 3.46734,0 0,2.63933 -10.16915,0 z" />
        <path
           id="path22"
           style="font-style:normal;font-variant:normal;font-weight:bold;font-stretch:normal;font-size:25.8757019px;font-family:'Ubuntu Mono';-inkscape-font-specification:'Ubuntu Mono Bold'"
           d="m -939.87696,317.66248 q -1.08678,-2.6652 -2.38057,-5.30452 -1.26791,-2.6652 -2.74282,-5.3304 l 0,10.63492 -2.8722,0 0,-16.01706 2.56169,0 q 0.72452,1.13853 1.44904,2.48406 0.72452,1.31966 1.39729,2.63933 0.69864,1.31966 1.26791,2.56169 0.59514,1.24203 1.00915,2.17356 l 0,-9.85864 2.8722,0 0,16.01706 -2.56169,0 z" />
      </g>
    </g>
  </g>
</svg>
