<?xml version="1.0" encoding="UTF-8" standalone="no"?>
<svg
   xmlns:dc="http://purl.org/dc/elements/1.1/"
   xmlns:cc="http://creativecommons.org/ns#"
   xmlns:rdf="http://www.w3.org/1999/02/22-rdf-syntax-ns#"
   xmlns:svg="http://www.w3.org/2000/svg"
   xmlns="http://www.w3.org/2000/svg"
   version="1.1"
   id="svg3989"
   height="450.40625"
   width="130">
  <defs
     id="defs3991" />
  <metadata
     id="metadata3994">
    <rdf:RDF>
      <cc:Work
         rdf:about="">
        <dc:format>image/svg+xml</dc:format>
        <dc:type
           rdf:resource="http://purl.org/dc/dcmitype/StillImage" />
        <dc:title />
      </cc:Work>
    </rdf:RDF>
  </metadata>
  <g
     transform="translate(0,-942.375)"
     id="layer1">
    <path
       id="rect3997-7"
       d="m 32.239742,944.375 -30.2397422,0 0,83 31.4999952,0 c 10.514446,7.064 21.006589,15.9219 31.499993,23 10.485618,-7.0834 20.993459,-15.9308 31.500029,-23 l 31.499983,0 0,-83 -30.240223,0 z"
       style="fill:#839496;fill-opacity:1;stroke:#073642;stroke-width:4;stroke-miterlimit:4;stroke-dasharray:none;stroke-opacity:1" />
    <path
       style="fill:#be8900;fill-opacity:1;stroke:#000000;stroke-width:2.55553341;stroke-miterlimit:4;stroke-dasharray:none;stroke-opacity:1"
       d="m 34.333597,984.253 c 0,-16.9365 13.729814,-30.6664 30.666401,-30.6664 16.936587,0 30.666399,13.7299 30.666399,30.6664 m 0,0 0,30.6665 -61.3328,0 0,-30.6665"
       id="path2987" />
    <path
       id="rect3997-78"
       d="m 32.239744,1029.375 -30.2397442,0 0,83 31.4999942,0 c 10.51445,7.064 21.00659,15.9219 31.49999,23 10.48562,-7.0834 20.993464,-15.9308 31.500044,-23 l 31.499982,0 0,-83 -30.240222,0 -32.760054,23 z"
       style="fill:#eee8d5;fill-opacity:1;stroke:#073642;stroke-width:3.99999952;stroke-miterlimit:4;stroke-dasharray:none;stroke-opacity:1" />
    <path
       id="rect3997-78-3"
       d="m 32.239744,1114.375 -30.2397442,0 0,83 31.4999942,0 c 10.51445,7.064 21.00659,15.9219 31.49999,23 10.485619,-7.0834 20.993469,-15.9308 31.500049,-23 l 31.499977,0 0,-83 -30.240217,0 -32.760059,23 z"
       style="fill:#eee8d5;fill-opacity:1;stroke:#073642;stroke-width:3.99999952;stroke-miterlimit:4;stroke-dasharray:none;stroke-opacity:1" />
    <path
       id="rect3997-78-32"
       d="m 32.239744,1199.375 -30.2397442,0 0,83 31.4999942,0 c 10.51445,7.064 21.00659,15.9219 31.49999,23 10.485616,-7.0834 20.993466,-15.9308 31.500046,-23 l 31.49998,0 0,-83 -30.24022,0 -32.760056,23 z"
       style="fill:#eee8d5;fill-opacity:1;stroke:#073642;stroke-width:3.99999952;stroke-miterlimit:4;stroke-dasharray:none;stroke-opacity:1" />
    <path
       id="rect3997-78-3-2"
       d="m 32.239744,1284.375 -30.2397442,0 0,83 31.4999942,0 c 10.51445,7.064 21.00659,15.9219 31.49999,23 10.485616,-7.0834 20.993466,-15.9308 31.500046,-23 l 31.49998,0 0,-83 -30.24022,0 -32.760056,23 z"
       style="fill:#eee8d5;fill-opacity:1;stroke:#073642;stroke-width:3.99999952;stroke-miterlimit:4;stroke-dasharray:none;stroke-opacity:1" />
  </g>
</svg>
