<?xml version="1.0" encoding="UTF-8" standalone="no"?>
<svg
   xmlns:dc="http://purl.org/dc/elements/1.1/"
   xmlns:cc="http://creativecommons.org/ns#"
   xmlns:rdf="http://www.w3.org/1999/02/22-rdf-syntax-ns#"
   xmlns:svg="http://www.w3.org/2000/svg"
   xmlns="http://www.w3.org/2000/svg"
   version="1.1"
   id="svg3989"
   height="110.40625"
   width="130">
  <defs
     id="defs3991" />
  <metadata
     id="metadata3994">
    <rdf:RDF>
      <cc:Work
         rdf:about="">
        <dc:format>image/svg+xml</dc:format>
        <dc:type
           rdf:resource="http://purl.org/dc/dcmitype/StillImage" />
        <dc:title />
      </cc:Work>
    </rdf:RDF>
  </metadata>
  <g
     transform="translate(0,-942.71875)"
     id="layer1">
    <path
       id="rect3997"
       d="m 32.239742,944.71877 -30.2397421,0 0,83.00003 31.4999951,0 c 10.514446,7.064 21.006589,15.9219 31.499993,23 10.485618,-7.0834 20.99346,-15.9308 31.500032,-23 l 31.49998,0 0,-83.00003 -30.240219,0 -32.760045,22.99998 z"
       style="fill:#839496;fill-opacity:1;stroke:#073642;stroke-width:3.99999952;stroke-miterlimit:4;stroke-dasharray:none;stroke-opacity:1" />
    <g
       transform="translate(6.3325083,0)"
       id="g3362">
      <g
         id="text3868"
         style="font-style:normal;font-variant:normal;font-weight:bold;font-stretch:normal;font-size:38.47999573px;line-height:125%;font-family:'Goudy Old Style';-inkscape-font-specification:'Goudy Old Style Bold Italic';text-align:center;letter-spacing:0px;word-spacing:0px;text-anchor:middle;fill:#000000;fill-opacity:1;stroke:none">
        <path
           id="path19"
           style="font-style:normal;font-variant:normal;font-weight:bold;font-stretch:normal;font-size:47.5px;font-family:'ubuntu mono';-inkscape-font-specification:'ubuntu mono Bold'"
           d="m 79.695572,1010.4389 q -1.0925,0 -2.3275,-0.19 -1.1875,-0.1425 -2.3275,-0.38 -1.0925,-0.2375 -2.0425,-0.5225 -0.95,-0.285 -1.4725,-0.5225 l 1.14,-4.8925 q 1.0925,0.475 2.8025,0.9975 1.7575,0.5225 4.18,0.5225 2.9925,0 4.18,-1.2825 1.235,-1.2825 1.235,-3.1825 0,-2.32749 -1.8525,-3.22999 -1.8525,-0.95 -4.7025,-0.95 l -1.805,0 0,-4.845 2.185,0 q 0.9025,0 1.805,-0.19 0.9025,-0.19 1.615,-0.6175 0.7125,-0.4275 1.14,-1.14 0.475,-0.7125 0.475,-1.805 0,-1.615 -0.9975,-2.5175 -0.95,-0.95 -2.66,-0.95 -1.6625,0 -3.325,0.57 -1.615,0.5225 -2.8025,1.33 l -2.09,-4.275 q 1.2825,-0.855 3.3725,-1.71 2.1375,-0.9025 4.7975,-0.9025 2.47,0 4.275,0.6175 1.8525,0.6175 3.04,1.7575 1.1875,1.0925 1.7575,2.6125 0.57,1.52 0.57,3.2775 0,1.7575 -0.9975,3.3725 -0.9975,1.615 -2.66,2.47 2.28,0.95 3.515,2.8025 1.2825,1.8525 1.2825,4.41749 0,2.0425 -0.665,3.7525 -0.665,1.71 -2.0425,2.9925 -1.3775,1.235 -3.515,1.9475 -2.1375,0.665 -5.0825,0.665 z" />
      </g>
      <g
         style="color:#000000;display:inline;overflow:visible;visibility:visible;fill:#000000;fill-opacity:1;fill-rule:nonzero;stroke:none;stroke-width:1;marker:none;enable-background:accumulate"
         id="g3763"
         transform="matrix(0,-0.36977083,-0.29202847,0,184.04239,1134.5272)">
        <path
           id="rect2991"
           d="m 366.43304,485.58038 17.5,0 0,58.57143 -17.5,0 z"
           style="color:#000000;display:inline;overflow:visible;visibility:visible;fill:#000000;fill-opacity:1;fill-rule:nonzero;stroke:none;stroke-width:1;marker:none;enable-background:accumulate" />
        <path
           id="path3761"
           d="M 109.73089,86.882025 81.071427,136.52167 52.411963,86.882025 Z"
           style="color:#000000;display:inline;overflow:visible;visibility:visible;fill:#000000;fill-opacity:1;fill-rule:nonzero;stroke:none;stroke-width:1.00211263;marker:none;enable-background:accumulate"
           transform="matrix(0.88161477,0,0,-1.1295048,303.70927,583.94998)" />
      </g>
    </g>
    <g
       id="flowRoot3003"
       style="font-style:normal;font-weight:normal;font-size:40px;line-height:125%;font-family:Sans;letter-spacing:0px;word-spacing:0px;fill:#000000;fill-opacity:1;stroke:none"
       transform="translate(0,952.375)" />
  </g>
</svg>
