<?xml version="1.0" encoding="UTF-8" standalone="no"?>
<svg
   xmlns:dc="http://purl.org/dc/elements/1.1/"
   xmlns:cc="http://creativecommons.org/ns#"
   xmlns:rdf="http://www.w3.org/1999/02/22-rdf-syntax-ns#"
   xmlns:svg="http://www.w3.org/2000/svg"
   xmlns="http://www.w3.org/2000/svg"
   version="1.1"
   id="svg3989"
   height="110.40625"
   width="130">
  <defs
     id="defs3991" />
  <metadata
     id="metadata3994">
    <rdf:RDF>
      <cc:Work
         rdf:about="">
        <dc:format>image/svg+xml</dc:format>
        <dc:type
           rdf:resource="http://purl.org/dc/dcmitype/StillImage" />
        <dc:title />
      </cc:Work>
    </rdf:RDF>
  </metadata>
  <g
     transform="translate(0,-942.71875)"
     id="layer1">
    <path
       id="rect3997"
       d="m 32.239742,944.71877 -30.2397421,0 0,83.00003 31.4999951,0 c 10.514446,7.064 21.006589,15.9219 31.499993,23 10.485618,-7.0834 20.99346,-15.9308 31.500032,-23 l 31.49998,0 0,-83.00003 -30.240219,0 -32.760045,22.99998 z"
       style="fill:#839496;fill-opacity:1;stroke:#073642;stroke-width:3.99999952;stroke-miterlimit:4;stroke-dasharray:none;stroke-opacity:1" />
    <g
       transform="translate(6.3325083,0)"
       id="g3362">
      <g
         id="text3868"
         style="font-style:normal;font-variant:normal;font-weight:bold;font-stretch:normal;font-size:22.49090576px;line-height:125%;font-family:'Goudy Old Style';-inkscape-font-specification:'Goudy Old Style Bold Italic';text-align:center;letter-spacing:0px;word-spacing:0px;text-anchor:middle;fill:#000000;fill-opacity:1;stroke:none">
        <path
           id="path16"
           style="font-style:normal;font-variant:normal;font-weight:bold;font-stretch:normal;font-size:30px;line-height:125%;font-family:'Ubuntu Mono';-inkscape-font-specification:'Ubuntu Mono, Bold';text-align:center;writing-mode:lr-tb;text-anchor:middle"
           d="m 15.06749,1002.568 0,-18.57001 11.25,0 0,3.06 -7.56,0 0,4.17 6.57,0 0,3.06 -6.57,0 0,5.22 8.22,0 0,3.06001 -11.91,0 z" />
        <path
           id="path18"
           style="font-style:normal;font-variant:normal;font-weight:bold;font-stretch:normal;font-size:30px;line-height:125%;font-family:'Ubuntu Mono';-inkscape-font-specification:'Ubuntu Mono, Bold';text-align:center;writing-mode:lr-tb;text-anchor:middle"
           d="m 35.01749,999.77799 q 1.35,0 2.07,-0.18 0.72,-0.21 0.72,-0.81 0,-0.39 -0.24,-0.66 -0.21,-0.27 -0.63,-0.45 -0.39,-0.21 -0.93,-0.39 -0.51,-0.18 -1.08,-0.36 -0.81,-0.24 -1.65,-0.54 -0.84,-0.33 -1.53,-0.81 -0.69,-0.48 -1.14,-1.2 -0.45,-0.75 -0.45,-1.86 0,-0.9 0.33,-1.68 0.36,-0.81 1.08,-1.41 0.75,-0.63 1.89,-0.96 1.14,-0.36 2.73,-0.36 1.38,0 2.55,0.21 1.2,0.21 2.07,0.6 l -0.57,3.12 q -0.51,-0.15 -1.59,-0.48 -1.08,-0.36 -2.43,-0.36 -1.41,0 -1.92,0.36 -0.48,0.33 -0.48,0.72 0,0.33 0.21,0.6 0.24,0.24 0.6,0.45 0.39,0.21 0.87,0.42 0.51,0.18 1.08,0.36 0.81,0.27 1.68,0.6 0.87,0.33 1.56,0.84 0.72,0.48 1.17,1.26 0.45,0.75 0.45,1.86 0,0.87 -0.33,1.65001 -0.33,0.78 -1.11,1.35 -0.75,0.57 -1.98,0.9 -1.23,0.33 -3.03,0.33 -1.83,0 -3.12,-0.42 -1.29,-0.42 -2.07,-0.75 l 0.57,-3.09001 q 1.05,0.42 2.22,0.78 1.2,0.36 2.43,0.36 z" />
        <path
           id="path20"
           style="font-style:normal;font-variant:normal;font-weight:bold;font-stretch:normal;font-size:30px;line-height:125%;font-family:'Ubuntu Mono';-inkscape-font-specification:'Ubuntu Mono, Bold';text-align:center;writing-mode:lr-tb;text-anchor:middle"
           d="m 44.49749,995.51799 q 0,-1.53 0.48,-2.88 0.48,-1.35 1.47,-2.34 0.99,-1.02 2.49,-1.59 1.53,-0.6 3.63,-0.6 1.26,0 2.28,0.18 1.02,0.18 2.07,0.6 l -0.81,2.97 q -0.6,-0.21 -1.35,-0.36 -0.72,-0.18 -1.86,-0.18 -1.32,0 -2.22,0.33 -0.87,0.3 -1.41,0.87 -0.54,0.54 -0.78,1.32 -0.24,0.78 -0.24,1.68 0,1.95 1.08,3.06 1.11,1.11 3.75,1.11 0.87,0 1.8,-0.12 0.96,-0.12 1.74,-0.39 l 0.54,3.03001 q -0.78,0.3 -1.89,0.48 -1.11,0.21 -2.61,0.21 -2.16,0 -3.72,-0.57 -1.53,-0.57 -2.52,-1.56 -0.99,-0.99001 -1.47,-2.34001 -0.45,-1.35 -0.45,-2.91 z" />
        <path
           id="path22"
           style="font-style:normal;font-variant:normal;font-weight:bold;font-stretch:normal;font-size:30px;line-height:125%;font-family:'Ubuntu Mono';-inkscape-font-specification:'Ubuntu Mono, Bold';text-align:center;writing-mode:lr-tb;text-anchor:middle"
           d="m 65.70749,999.92799 q 0.6,0 1.17,0 0.57,-0.03 0.99,-0.09 l 0,-3.24 q -0.36,-0.06 -0.87,-0.09 -0.51,-0.06 -0.93,-0.06 -0.57,0 -1.11,0.09 -0.54,0.06 -0.96,0.24 -0.39,0.18 -0.63,0.51 -0.24,0.33 -0.24,0.87 0,0.96 0.72,1.38 0.72,0.39 1.86,0.39 z m -0.33,-11.82 q 1.74,0 2.88,0.42 1.17,0.39 1.86,1.14 0.69,0.72 0.99,1.8 0.3,1.05 0.3,2.37 l 0,8.40001 q -0.81,0.18 -2.4,0.42 -1.59,0.24 -3.57,0.24 -1.35,0 -2.46,-0.24 -1.08,-0.24 -1.86,-0.78 -0.78,-0.57 -1.2,-1.44 -0.42,-0.90001 -0.42,-2.19001 0,-1.23 0.48,-2.07 0.48,-0.84 1.29,-1.35 0.81,-0.51 1.86,-0.72 1.05,-0.24 2.19,-0.24 1.44,0 2.55,0.24 l 0,-0.45 q 0,-1.05 -0.66,-1.74 -0.66,-0.72 -2.28,-0.72 -1.05,0 -2.04,0.15 -0.96,0.15 -1.56,0.36 l -0.51,-2.97 q 0.69,-0.24 1.95,-0.42 1.26,-0.21 2.61,-0.21 z" />
        <path
           id="path24"
           style="font-style:normal;font-variant:normal;font-weight:bold;font-stretch:normal;font-size:30px;line-height:125%;font-family:'Ubuntu Mono';-inkscape-font-specification:'Ubuntu Mono, Bold';text-align:center;writing-mode:lr-tb;text-anchor:middle"
           d="m 83.49749,995.63799 q 0,-1.89 -0.75,-3.09 -0.75,-1.23 -2.28,-1.23 -0.42,0 -0.9,0.06 -0.48,0.03 -0.81,0.06 l 0,7.74 q 0.36,0.24 0.96,0.39 0.6,0.15 1.2,0.15 1.32,0 1.95,-1.05 0.63,-1.08 0.63,-3.03 z m 3.75,-0.12 q 0,1.62 -0.36,3 -0.36,1.35 -1.05,2.34001 -0.69,0.96 -1.74,1.5 -1.05,0.54 -2.43,0.54 -1.41,0 -2.91,-0.69 l 0,5.31 -3.69,0 0,-18.60001 q 1.02,-0.33 2.49,-0.54 1.5,-0.21 2.94,-0.21 3.27,0 5.01,1.98 1.74,1.98 1.74,5.37 z" />
        <path
           id="path26"
           style="font-style:normal;font-variant:normal;font-weight:bold;font-stretch:normal;font-size:30px;line-height:125%;font-family:'Ubuntu Mono';-inkscape-font-specification:'Ubuntu Mono, Bold';text-align:center;writing-mode:lr-tb;text-anchor:middle"
           d="m 89.10749,995.63799 q 0,-1.86 0.57,-3.27 0.57,-1.41 1.5,-2.34 0.93,-0.96 2.13,-1.44 1.2,-0.48 2.46,-0.48 3.12,0 4.74,1.86 1.62,1.83 1.62,5.37 0,0.36 -0.03,0.75 0,0.39 -0.03,0.63 l -9.15,0 q 0,1.38 1.14,2.19 1.14,0.78 2.94,0.78 1.11,0 2.1,-0.24 1.02,-0.24 1.71,-0.48 l 0.51,3.15001 q -0.96,0.33 -2.04,0.54 -1.08,0.24 -2.43,0.24 -1.8,0 -3.24,-0.45 -1.41,-0.48 -2.43,-1.38 -0.99,-0.93 -1.53,-2.28001 -0.54,-1.35 -0.54,-3.15 z m 9.45,-1.47 q 0,-0.57 -0.15,-1.08 -0.15,-0.54 -0.48,-0.96 -0.33,-0.42 -0.84,-0.66 -0.51,-0.27 -1.26,-0.27 -0.72,0 -1.26,0.24 -0.51,0.24 -0.87,0.66 -0.33,0.42 -0.54,0.96 -0.18,0.54 -0.24,1.11 l 5.64,0 z" />
      </g>
    </g>
    <g
       id="flowRoot3003"
       style="font-style:normal;font-variant:normal;font-weight:normal;font-stretch:normal;font-size:30px;line-height:125%;font-family:'Ubuntu Mono';-inkscape-font-specification:'Ubuntu Mono';letter-spacing:0px;word-spacing:0px;fill:#000000;fill-opacity:1;stroke:none"
       transform="translate(0,952.375)" />
  </g>
</svg>
