<?xml version="1.0" encoding="UTF-8" standalone="no"?>
<svg
   xmlns:dc="http://purl.org/dc/elements/1.1/"
   xmlns:cc="http://creativecommons.org/ns#"
   xmlns:rdf="http://www.w3.org/1999/02/22-rdf-syntax-ns#"
   xmlns:svg="http://www.w3.org/2000/svg"
   xmlns="http://www.w3.org/2000/svg"
   version="1.1"
   id="svg3989"
   height="110.40625"
   width="130">
  <defs
     id="defs3991" />
  <metadata
     id="metadata3994">
    <rdf:RDF>
      <cc:Work
         rdf:about="">
        <dc:format>image/svg+xml</dc:format>
        <dc:type
           rdf:resource="http://purl.org/dc/dcmitype/StillImage" />
        <dc:title />
      </cc:Work>
    </rdf:RDF>
  </metadata>
  <g
     transform="translate(0,-942.71875)"
     id="layer1">
    <path
       id="rect3997"
       d="m 32.239742,944.71877 -30.2397421,0 0,83.00003 31.4999951,0 c 10.514446,7.064 21.006589,15.9219 31.499993,23 10.485618,-7.0834 20.99346,-15.9308 31.500032,-23 l 31.49998,0 0,-83.00003 -30.240219,0 -32.760045,22.99998 z"
       style="fill:#839496;fill-opacity:1;stroke:#073642;stroke-width:3.99999952;stroke-miterlimit:4;stroke-dasharray:none;stroke-opacity:1" />
    <g
       transform="translate(6.3325083,0)"
       id="g3362">
      <g
         id="text3868"
         style="font-style:normal;font-variant:normal;font-weight:normal;font-stretch:normal;font-size:35px;line-height:125%;font-family:'Ubuntu Mono';-inkscape-font-specification:'Ubuntu Mono';text-align:center;letter-spacing:0px;word-spacing:0px;text-anchor:middle;fill:#000000;fill-opacity:1;stroke:none">
        <path
           id="path16"
           style="font-style:normal;font-variant:normal;font-weight:bold;font-stretch:normal;font-size:30px;font-family:'Ubuntu Mono';-inkscape-font-specification:'Ubuntu Mono Bold'"
           d="m 38.862113,986.78799 q -1.32,0 -2.22,0.48 -0.9,0.48 -1.5,1.35 -0.57,0.84 -0.84,2.04 -0.24,1.17 -0.24,2.61 0,3.33 1.05,4.92 1.05,1.56 3.09,1.56 0.33,0 0.72,-0.03 0.39,-0.03 0.72,-0.09 l 0,-6.78 3.69,0 0,9.27001 q -0.66,0.24 -2.07,0.54 -1.38,0.3 -3.36,0.3 -1.74,0 -3.15,-0.6 -1.38,-0.63 -2.37,-1.83 -0.99,-1.23001 -1.53,-3.03001 -0.54,-1.83 -0.54,-4.23 0,-2.37 0.63,-4.17 0.63,-1.83 1.71,-3.06 1.08,-1.23 2.55,-1.83 1.47,-0.63 3.15,-0.63 1.08,0 1.92,0.18 0.87,0.15 1.5,0.36 0.63,0.21 1.02,0.45 0.42,0.24 0.63,0.36 l -0.96,2.94 q -0.66,-0.42 -1.62,-0.75 -0.96,-0.33 -1.98,-0.33 z" />
        <path
           id="path18"
           style="font-style:normal;font-variant:normal;font-weight:bold;font-stretch:normal;font-size:30px;font-family:'Ubuntu Mono';-inkscape-font-specification:'Ubuntu Mono Bold'"
           d="m 57.612113,992.21799 q -0.36,-0.09 -0.87,-0.18 -0.48,-0.09 -0.99,-0.15 -0.51,-0.09 -0.99,-0.12 -0.48,-0.03 -0.81,-0.03 -0.78,0 -1.53,0.09 -0.75,0.06 -1.53,0.27 l 0,10.47001 -3.72,0 0,-13.17001 q 1.47,-0.54 3,-0.87 1.56,-0.33 3.63,-0.33 0.3,0 0.84,0.03 0.57,0.03 1.2,0.12 0.63,0.06 1.26,0.18 0.66,0.09 1.17,0.27 l -0.66,3.42 z" />
        <path
           id="path20"
           style="font-style:normal;font-variant:normal;font-weight:bold;font-stretch:normal;font-size:30px;font-family:'Ubuntu Mono';-inkscape-font-specification:'Ubuntu Mono Bold'"
           d="m 67.032113,999.92799 q 0.6,0 1.17,0 0.57,-0.03 0.99,-0.09 l 0,-3.24 q -0.36,-0.06 -0.87,-0.09 -0.51,-0.06 -0.93,-0.06 -0.57,0 -1.11,0.09 -0.54,0.06 -0.96,0.24 -0.39,0.18 -0.63,0.51 -0.24,0.33 -0.24,0.87 0,0.96 0.72,1.38 0.72,0.39 1.86,0.39 z m -0.33,-11.82 q 1.74,0 2.88,0.42 1.17,0.39 1.86,1.14 0.69,0.72 0.99,1.8 0.3,1.05 0.3,2.37 l 0,8.40001 q -0.81,0.18 -2.4,0.42 -1.59,0.24 -3.57,0.24 -1.35,0 -2.46,-0.24 -1.08,-0.24 -1.86,-0.78 -0.78,-0.57 -1.2,-1.44 -0.42,-0.90001 -0.42,-2.19001 0,-1.23 0.48,-2.07 0.48,-0.84 1.29,-1.35 0.81,-0.51 1.86,-0.72 1.05,-0.24 2.19,-0.24 1.44,0 2.55,0.24 l 0,-0.45 q 0,-1.05 -0.66,-1.74 -0.66,-0.72 -2.28,-0.72 -1.05,0 -2.04,0.15 -0.96,0.15 -1.56,0.36 l -0.51,-2.97 q 0.69,-0.24 1.95,-0.42 1.26,-0.21 2.61,-0.21 z" />
        <path
           id="path22"
           style="font-style:normal;font-variant:normal;font-weight:bold;font-stretch:normal;font-size:30px;font-family:'Ubuntu Mono';-inkscape-font-specification:'Ubuntu Mono Bold'"
           d="m 84.852113,995.42799 q 0,-1.98 -0.66,-3.03 -0.63,-1.05 -1.95,-1.05 -0.6,0 -1.2,0.18 -0.57,0.15 -0.99,0.39 l 0,7.65 q 0.42,0.09 0.87,0.12 0.48,0.03 0.81,0.03 1.44,0 2.28,-0.96 0.84,-0.99 0.84,-3.33 z m 3.75,0.09 q 0,1.68 -0.45,3.06 -0.45,1.35 -1.32,2.31001 -0.87,0.96 -2.13,1.5 -1.26,0.51 -2.88,0.51 -1.44,0 -2.94,-0.21 -1.5,-0.21 -2.52,-0.54 l 0,-19.77001 3.69,-0.63 0,7.05 q 0.78,-0.36 1.5,-0.48 0.72,-0.15 1.44,-0.15 1.38,0 2.43,0.54 1.05,0.51 1.74,1.5 0.72,0.96 1.08,2.31 0.36,1.35 0.36,3 z" />
      </g>
    </g>
    <g
       id="flowRoot3003"
       style="font-style:normal;font-weight:normal;font-size:40px;line-height:125%;font-family:Sans;letter-spacing:0px;word-spacing:0px;fill:#000000;fill-opacity:1;stroke:none"
       transform="translate(0,952.375)" />
  </g>
</svg>
