<?xml version="1.0" encoding="UTF-8" standalone="no"?>
<svg
   xmlns:dc="http://purl.org/dc/elements/1.1/"
   xmlns:cc="http://creativecommons.org/ns#"
   xmlns:rdf="http://www.w3.org/1999/02/22-rdf-syntax-ns#"
   xmlns:svg="http://www.w3.org/2000/svg"
   xmlns="http://www.w3.org/2000/svg"
   version="1.1"
   id="svg3989"
   height="110.40625"
   width="130">
  <defs
     id="defs3991" />
  <metadata
     id="metadata3994">
    <rdf:RDF>
      <cc:Work
         rdf:about="">
        <dc:format>image/svg+xml</dc:format>
        <dc:type
           rdf:resource="http://purl.org/dc/dcmitype/StillImage" />
        <dc:title />
      </cc:Work>
    </rdf:RDF>
  </metadata>
  <g
     transform="translate(0,-942.71875)"
     id="layer1">
    <path
       id="rect3997"
       d="m 32.239742,944.71877 -30.2397421,0 0,83.00003 31.4999951,0 c 10.514446,7.064 21.006589,15.9219 31.499993,23 10.485618,-7.0834 20.99346,-15.9308 31.500032,-23 l 31.49998,0 0,-83.00003 -30.240219,0 -32.760045,22.99998 z"
       style="fill:#839496;fill-opacity:1;stroke:#073642;stroke-width:3.99999952;stroke-miterlimit:4;stroke-dasharray:none;stroke-opacity:1" />
    <g
       transform="translate(6.3325083,0)"
       id="g3362">
      <g
         id="text3868"
         style="font-style:normal;font-variant:normal;font-weight:bold;font-stretch:normal;font-size:22.49090576px;line-height:125%;font-family:'Goudy Old Style';-inkscape-font-specification:'Goudy Old Style Bold Italic';text-align:center;letter-spacing:0px;word-spacing:0px;text-anchor:middle;fill:#000000;fill-opacity:1;stroke:none">
        <path
           id="path16"
           style="font-style:normal;font-variant:normal;font-weight:bold;font-stretch:normal;font-size:30px;font-family:'Ubuntu Mono';-inkscape-font-specification:'Ubuntu Mono Bold'"
           d="m 21.252113,983.99799 0,3.06 -4.89,0 0,15.51001 -3.72,0 0,-15.51001 -4.8899997,0 0,-3.06 13.4999997,0 z" />
        <path
           id="path18"
           style="font-style:normal;font-variant:normal;font-weight:bold;font-stretch:normal;font-size:30px;font-family:'Ubuntu Mono';-inkscape-font-specification:'Ubuntu Mono Bold'"
           d="m 23.892113,1002.568 0,-20.19001 3.69,-0.63 0,6.84 q 0.45,-0.15 1.08,-0.27 0.63,-0.15 1.11,-0.15 1.56,0 2.61,0.48 1.05,0.45 1.68,1.32 0.63,0.84 0.9,2.04 0.27,1.17 0.27,2.61 l 0,7.95001 -3.69,0 0,-7.47001 q 0,-1.98 -0.45,-2.85 -0.45,-0.87 -1.71,-0.87 -0.51,0 -1.02,0.12 -0.48,0.12 -0.78,0.21 l 0,10.86001 -3.69,0 z" />
        <path
           id="path20"
           style="font-style:normal;font-variant:normal;font-weight:bold;font-stretch:normal;font-size:30px;font-family:'Ubuntu Mono';-inkscape-font-specification:'Ubuntu Mono Bold'"
           d="m 50.112113,992.21799 q -0.36,-0.09 -0.87,-0.18 -0.48,-0.09 -0.99,-0.15 -0.51,-0.09 -0.99,-0.12 -0.48,-0.03 -0.81,-0.03 -0.78,0 -1.53,0.09 -0.75,0.06 -1.53,0.27 l 0,10.47001 -3.72,0 0,-13.17001 q 1.47,-0.54 3,-0.87 1.56,-0.33 3.63,-0.33 0.3,0 0.84,0.03 0.57,0.03 1.2,0.12 0.63,0.06 1.26,0.18 0.66,0.09 1.17,0.27 l -0.66,3.42 z" />
        <path
           id="path22"
           style="font-style:normal;font-variant:normal;font-weight:bold;font-stretch:normal;font-size:30px;font-family:'Ubuntu Mono';-inkscape-font-specification:'Ubuntu Mono Bold'"
           d="m 66.162113,995.48799 q 0,1.68 -0.48,3.06 -0.48,1.35 -1.35,2.34001 -0.87,0.99 -2.1,1.53 -1.2,0.54 -2.7,0.54 -1.5,0 -2.73,-0.54 -1.2,-0.54 -2.1,-1.53 -0.87,-0.99001 -1.35,-2.34001 -0.48,-1.38 -0.48,-3.06 0,-1.65 0.48,-3 0.51,-1.38 1.38,-2.34 0.9,-0.99 2.13,-1.5 1.23,-0.54 2.67,-0.54 1.47,0 2.67,0.54 1.23,0.51 2.1,1.5 0.9,0.96 1.38,2.34 0.48,1.35 0.48,3 z m -9.54,0.03 q 0,1.89 0.66,3.06 0.69,1.17 2.19,1.17 1.44,0 2.16,-1.17 0.75,-1.17 0.75,-3.06 0,-1.89 -0.69,-3.03 -0.66,-1.17 -2.16,-1.17 -1.44,0 -2.19,1.17 -0.72,1.14 -0.72,3.03 z" />
        <path
           id="path24"
           style="font-style:normal;font-variant:normal;font-weight:bold;font-stretch:normal;font-size:30px;font-family:'Ubuntu Mono';-inkscape-font-specification:'Ubuntu Mono Bold'"
           d="m 76.662113,1002.568 q -0.33,-0.93 -0.63,-1.71 -0.27,-0.78 -0.54,-1.50001 -0.24,-0.75 -0.51,-1.53 -0.24,-0.81 -0.51,-1.77 -0.3,0.96 -0.54,1.74 -0.24,0.75 -0.51,1.5 -0.24,0.75001 -0.51,1.53001 -0.27,0.78 -0.66,1.74 l -2.79,0 q -0.36,-1.32 -0.69,-2.91001 -0.3,-1.62 -0.57,-3.42 -0.27,-1.83 -0.48,-3.78 -0.21,-1.95 -0.39,-3.99 l 3.15,0 q 0.12,2.61 0.24,5.1 0.15,2.49 0.51,5.13 0.39,-1.14 0.66,-2.1 0.3,-0.99 0.51,-1.86 0.24,-0.9 0.42,-1.71 0.21,-0.84 0.42,-1.71 l 2.67,0 q 0.18,0.87 0.36,1.71 0.21,0.81 0.42,1.71 0.24,0.87 0.48,1.86 0.27,0.96 0.63,2.1 0.18,-1.38 0.3,-2.64 0.12,-1.26 0.18,-2.49 0.09,-1.26 0.12,-2.49 0.06,-1.26 0.12,-2.61 l 3.15,0 q -0.33,4.11 -0.93,7.74 -0.57,3.63 -1.29,6.36001 l -2.79,0 z" />
        <path
           id="path26"
           style="font-style:normal;font-variant:normal;font-weight:bold;font-stretch:normal;font-size:30px;font-family:'Ubuntu Mono';-inkscape-font-specification:'Ubuntu Mono Bold'"
           d="m 105.55211,988.61799 q -0.54,0.69 -1.11,1.47 -0.57,0.78 -1.14,1.65 -0.54,0.84 -1.05,1.71 -0.51,0.87 -0.9,1.71 l 4.2,0 0,-6.54 z m 3.69,-4.62 0,11.16 2.01,0 0,3.03 -2.01,0 0,4.38001 -3.69,0 0,-4.38001 -7.739997,0 0,-2.7 q 0.57,-1.17 1.47,-2.64 0.899997,-1.5 1.979997,-3.06 1.08,-1.56 2.28,-3.06 1.2,-1.53 2.4,-2.73 l 3.3,0 z" />
      </g>
    </g>
    <g
       id="flowRoot3003"
       style="font-style:normal;font-weight:normal;font-size:40px;line-height:125%;font-family:Sans;letter-spacing:0px;word-spacing:0px;fill:#000000;fill-opacity:1;stroke:none"
       transform="translate(0,952.375)" />
  </g>
</svg>
