<?xml version="1.0" encoding="UTF-8" standalone="no"?>
<svg
   xmlns:dc="http://purl.org/dc/elements/1.1/"
   xmlns:cc="http://creativecommons.org/ns#"
   xmlns:rdf="http://www.w3.org/1999/02/22-rdf-syntax-ns#"
   xmlns:svg="http://www.w3.org/2000/svg"
   xmlns="http://www.w3.org/2000/svg"
   version="1.1"
   id="svg3989"
   height="110.40625"
   width="130">
  <defs
     id="defs3991" />
  <metadata
     id="metadata3994">
    <rdf:RDF>
      <cc:Work
         rdf:about="">
        <dc:format>image/svg+xml</dc:format>
        <dc:type
           rdf:resource="http://purl.org/dc/dcmitype/StillImage" />
        <dc:title />
      </cc:Work>
    </rdf:RDF>
  </metadata>
  <g
     transform="translate(0,-942.71875)"
     id="layer1">
    <path
       id="rect3997"
       d="m 32.239742,944.71877 -30.2397421,0 0,83.00003 31.4999951,0 c 10.514446,7.064 21.006589,15.9219 31.499993,23 10.485618,-7.0834 20.99346,-15.9308 31.500032,-23 l 31.49998,0 0,-83.00003 -30.240219,0 -32.760045,22.99998 z"
       style="fill:#839496;fill-opacity:1;stroke:#073642;stroke-width:3.99999952;stroke-miterlimit:4;stroke-dasharray:none;stroke-opacity:1" />
    <g
       id="text3868"
       style="font-style:normal;font-variant:normal;font-weight:bold;font-stretch:normal;font-size:38.47999573px;line-height:125%;font-family:'Goudy Old Style';-inkscape-font-specification:'Goudy Old Style Bold Italic';text-align:center;letter-spacing:0px;word-spacing:0px;text-anchor:middle;fill:#000000;fill-opacity:1;stroke:none">
      <path
         id="path18"
         style="font-style:normal;font-variant:normal;font-weight:bold;font-stretch:normal;font-size:47.5px;font-family:'ubuntu mono';-inkscape-font-specification:'ubuntu mono Bold'"
         d="m 86.028083,1004.9764 0,-16.43499 q -1.33,0.95 -3.04,1.71 -1.71,0.7125 -2.8975,1.14 l -1.9,-4.845 q 1.14,-0.4275 2.47,-1.0925 1.33,-0.665 2.66,-1.4725 1.33,-0.8075 2.5175,-1.71 1.1875,-0.9025 2.0425,-1.8525 l 3.99,0 0,24.55749 5.8425,0 0,4.845 -17.86,0 0,-4.845 6.175,0 z" />
    </g>
    <g
       transform="matrix(0,-0.36977083,0.29202847,0,-94.031602,1134.5272)"
       id="g3763"
       style="color:#000000;display:inline;overflow:visible;visibility:visible;fill:#000000;fill-opacity:1;fill-rule:nonzero;stroke:none;stroke-width:1;marker:none;enable-background:accumulate">
      <path
         id="rect2991"
         d="m 366.43304,485.58038 17.5,0 0,58.57143 -17.5,0 z"
         style="color:#000000;display:inline;overflow:visible;visibility:visible;fill:#000000;fill-opacity:1;fill-rule:nonzero;stroke:none;stroke-width:1;marker:none;enable-background:accumulate" />
      <path
         id="path3761"
         d="M 109.73089,86.882025 81.071427,136.52167 52.411963,86.882025 Z"
         style="color:#000000;display:inline;overflow:visible;visibility:visible;fill:#000000;fill-opacity:1;fill-rule:nonzero;stroke:none;stroke-width:1.00211263;marker:none;enable-background:accumulate"
         transform="matrix(0.88161477,0,0,-1.1295048,303.70927,583.94998)" />
    </g>
    <g
       id="flowRoot3003"
       style="font-style:normal;font-weight:normal;font-size:40px;line-height:125%;font-family:Sans;letter-spacing:0px;word-spacing:0px;fill:#000000;fill-opacity:1;stroke:none"
       transform="translate(0,952.375)" />
  </g>
</svg>
